<svg xmlns="http://www.w3.org/2000/svg" width="940" height="810"><rect width="100%" height="100%" fill="#fffaf0"/><text x="24" y="32" font-family="Verdana, sans-serif" font-size="24" fill="#222">T-BOX update frequency</text><text x="24" y="54" font-family="Verdana, sans-serif" font-size="12" fill="#555">Top 25 property revisions ranked by number of Stage 4 T-BOX cases</text><text x="348" y="86" text-anchor="end" font-family="Verdana, sans-serif" font-size="12" fill="#333">P481 Palissy ID (rev 2317303689)</text><rect x="360" y="70" width="520" height="18" rx="4" fill="#c26d2d"/><text x="888" y="84" font-family="Verdana, sans-serif" font-size="12" fill="#333">20894</text><text x="348" y="114" text-anchor="end" font-family="Verdana, sans-serif" font-size="12" fill="#333">P18 image (rev 2402814023)</text><rect x="360" y="98" width="298" height="18" rx="4" fill="#c26d2d"/><text x="666" y="112" font-family="Verdana, sans-serif" font-size="12" fill="#333">11975</text><text x="348" y="142" text-anchor="end" font-family="Verdana, sans-serif" font-size="12" fill="#333">P18 image (rev 2393757166)</text><rect x="360" y="126" width="296" height="18" rx="4" fill="#c26d2d"/><text x="664" y="140" font-family="Verdana, sans-serif" font-size="12" fill="#333">11895</text><text x="348" y="170" text-anchor="end" font-family="Verdana, sans-serif" font-size="12" fill="#333">P268 Bibliothèque nationale de France ID (rev 2317147423)</text><rect x="360" y="154" width="289" height="18" rx="4" fill="#c26d2d"/><text x="657" y="168" font-family="Verdana, sans-serif" font-size="12" fill="#333">11619</text><text x="348" y="198" text-anchor="end" font-family="Verdana, sans-serif" font-size="12" fill="#333">P242 locator map image (rev 1687213130)</text><rect x="360" y="182" width="278" height="18" rx="4" fill="#c26d2d"/><text x="646" y="196" font-family="Verdana, sans-serif" font-size="12" fill="#333">11186</text><text x="348" y="226" text-anchor="end" font-family="Verdana, sans-serif" font-size="12" fill="#333">P166 award received (rev 2254793027)</text><rect x="360" y="210" width="260" height="18" rx="4" fill="#c26d2d"/><text x="628" y="224" font-family="Verdana, sans-serif" font-size="12" fill="#333">10457</text><text x="348" y="254" text-anchor="end" font-family="Verdana, sans-serif" font-size="12" fill="#333">P2605 ČSFD person ID (rev 2351781179)</text><rect x="360" y="238" width="248" height="18" rx="4" fill="#c26d2d"/><text x="616" y="252" font-family="Verdana, sans-serif" font-size="12" fill="#333">9997</text><text x="348" y="282" text-anchor="end" font-family="Verdana, sans-serif" font-size="12" fill="#333">P3382 GeneDB ID (rev 1029122128)</text><rect x="360" y="266" width="246" height="18" rx="4" fill="#c26d2d"/><text x="614" y="280" font-family="Verdana, sans-serif" font-size="12" fill="#333">9924</text><text x="348" y="310" text-anchor="end" font-family="Verdana, sans-serif" font-size="12" fill="#333">P950 National Library of Spain SpMaBN ID (BNE v1.0) (rev 2330325818)</text><rect x="360" y="294" width="236" height="18" rx="4" fill="#c26d2d"/><text x="604" y="308" font-family="Verdana, sans-serif" font-size="12" fill="#333">9496</text><text x="348" y="338" text-anchor="end" font-family="Verdana, sans-serif" font-size="12" fill="#333">P140 religion or worldview (rev 1858269104)</text><rect x="360" y="322" width="224" height="18" rx="4" fill="#c26d2d"/><text x="592" y="336" font-family="Verdana, sans-serif" font-size="12" fill="#333">9011</text><text x="348" y="366" text-anchor="end" font-family="Verdana, sans-serif" font-size="12" fill="#333">P1006 Nationale Thesaurus voor Auteursnamen ID (rev 2407207080)</text><rect x="360" y="350" width="209" height="18" rx="4" fill="#c26d2d"/><text x="577" y="364" font-family="Verdana, sans-serif" font-size="12" fill="#333">8429</text><text x="348" y="394" text-anchor="end" font-family="Verdana, sans-serif" font-size="12" fill="#333">P645 genomic end (rev 722137891)</text><rect x="360" y="378" width="193" height="18" rx="4" fill="#c26d2d"/><text x="561" y="392" font-family="Verdana, sans-serif" font-size="12" fill="#333">7779</text><text x="348" y="422" text-anchor="end" font-family="Verdana, sans-serif" font-size="12" fill="#333">P645 genomic end (rev 690339121)</text><rect x="360" y="406" width="193" height="18" rx="4" fill="#c26d2d"/><text x="561" y="420" font-family="Verdana, sans-serif" font-size="12" fill="#333">7757</text><text x="348" y="450" text-anchor="end" font-family="Verdana, sans-serif" font-size="12" fill="#333">P7937 form of creative work (rev 2439061952)</text><rect x="360" y="434" width="185" height="18" rx="4" fill="#c26d2d"/><text x="553" y="448" font-family="Verdana, sans-serif" font-size="12" fill="#333">7467</text><text x="348" y="478" text-anchor="end" font-family="Verdana, sans-serif" font-size="12" fill="#333">P1346 winner (rev 1580835843)</text><rect x="360" y="462" width="182" height="18" rx="4" fill="#c26d2d"/><text x="550" y="476" font-family="Verdana, sans-serif" font-size="12" fill="#333">7314</text><text x="348" y="506" text-anchor="end" font-family="Verdana, sans-serif" font-size="12" fill="#333">P644 genomic start (rev 722137948)</text><rect x="360" y="490" width="179" height="18" rx="4" fill="#c26d2d"/><text x="547" y="504" font-family="Verdana, sans-serif" font-size="12" fill="#333">7222</text><text x="348" y="534" text-anchor="end" font-family="Verdana, sans-serif" font-size="12" fill="#333">P6597 DFD ID (rev 2040528587)</text><rect x="360" y="518" width="175" height="18" rx="4" fill="#c26d2d"/><text x="543" y="532" font-family="Verdana, sans-serif" font-size="12" fill="#333">7049</text><text x="348" y="562" text-anchor="end" font-family="Verdana, sans-serif" font-size="12" fill="#333">P1782 courtesy name (rev 2252283680)</text><rect x="360" y="546" width="175" height="18" rx="4" fill="#c26d2d"/><text x="543" y="560" font-family="Verdana, sans-serif" font-size="12" fill="#333">7033</text><text x="348" y="590" text-anchor="end" font-family="Verdana, sans-serif" font-size="12" fill="#333">P644 genomic start (rev 696618533)</text><rect x="360" y="574" width="172" height="18" rx="4" fill="#c26d2d"/><text x="540" y="588" font-family="Verdana, sans-serif" font-size="12" fill="#333">6951</text><text x="348" y="618" text-anchor="end" font-family="Verdana, sans-serif" font-size="12" fill="#333">P644 genomic start (rev 690339109)</text><rect x="360" y="602" width="172" height="18" rx="4" fill="#c26d2d"/><text x="540" y="616" font-family="Verdana, sans-serif" font-size="12" fill="#333">6947</text><text x="348" y="646" text-anchor="end" font-family="Verdana, sans-serif" font-size="12" fill="#333">P1651 YouTube video ID (rev 1713429147)</text><rect x="360" y="630" width="172" height="18" rx="4" fill="#c26d2d"/><text x="540" y="644" font-family="Verdana, sans-serif" font-size="12" fill="#333">6919</text><text x="348" y="674" text-anchor="end" font-family="Verdana, sans-serif" font-size="12" fill="#333">P640 Léonore ID (rev 2317152167)</text><rect x="360" y="658" width="170" height="18" rx="4" fill="#c26d2d"/><text x="538" y="672" font-family="Verdana, sans-serif" font-size="12" fill="#333">6861</text><text x="348" y="702" text-anchor="end" font-family="Verdana, sans-serif" font-size="12" fill="#333">P645 genomic end (rev 696618524)</text><rect x="360" y="686" width="169" height="18" rx="4" fill="#c26d2d"/><text x="537" y="700" font-family="Verdana, sans-serif" font-size="12" fill="#333">6793</text><text x="348" y="730" text-anchor="end" font-family="Verdana, sans-serif" font-size="12" fill="#333">P2440 transliteration or transcription (rev 1695570929)</text><rect x="360" y="714" width="165" height="18" rx="4" fill="#c26d2d"/><text x="533" y="728" font-family="Verdana, sans-serif" font-size="12" fill="#333">6630</text><text x="348" y="758" text-anchor="end" font-family="Verdana, sans-serif" font-size="12" fill="#333">P400 platform (rev 2356390580)</text><rect x="360" y="742" width="162" height="18" rx="4" fill="#c26d2d"/><text x="530" y="756" font-family="Verdana, sans-serif" font-size="12" fill="#333">6546</text></svg>