<svg xmlns="http://www.w3.org/2000/svg" width="1100" height="640"><rect width="100%" height="100%" fill="#fffaf0"/><text x="24" y="32" font-family="Verdana, sans-serif" font-size="24" fill="#222">Surviving T-BOX repairs by per-update cap</text><text x="24" y="54" font-family="Verdana, sans-serif" font-size="12" fill="#555">Each point is sum(min(case_count_for_revision, N)) for N from 1000 down to 0</text><line x1="90" y1="550" x2="760" y2="550" stroke="#555" stroke-width="1.5"/><line x1="90" y1="70" x2="90" y2="550" stroke="#555" stroke-width="1.5"/><line x1="90" y1="550.00" x2="760" y2="550.00" stroke="#e8dccd" stroke-width="1"/><text x="80" y="554.00" text-anchor="end" font-family="Verdana, sans-serif" font-size="11" fill="#555">0</text><line x1="90" y1="454.00" x2="760" y2="454.00" stroke="#e8dccd" stroke-width="1"/><text x="80" y="458.00" text-anchor="end" font-family="Verdana, sans-serif" font-size="11" fill="#555">40,000</text><line x1="90" y1="358.00" x2="760" y2="358.00" stroke="#e8dccd" stroke-width="1"/><text x="80" y="362.00" text-anchor="end" font-family="Verdana, sans-serif" font-size="11" fill="#555">80,000</text><line x1="90" y1="262.00" x2="760" y2="262.00" stroke="#e8dccd" stroke-width="1"/><text x="80" y="266.00" text-anchor="end" font-family="Verdana, sans-serif" font-size="11" fill="#555">120,000</text><line x1="90" y1="166.00" x2="760" y2="166.00" stroke="#e8dccd" stroke-width="1"/><text x="80" y="170.00" text-anchor="end" font-family="Verdana, sans-serif" font-size="11" fill="#555">160,000</text><line x1="90" y1="70.00" x2="760" y2="70.00" stroke="#e8dccd" stroke-width="1"/><text x="80" y="74.00" text-anchor="end" font-family="Verdana, sans-serif" font-size="11" fill="#555">200,000</text><line x1="90.00" y1="550" x2="90.00" y2="556" stroke="#555" stroke-width="1"/><text x="90.00" y="574" text-anchor="middle" font-family="Verdana, sans-serif" font-size="11" fill="#555">1,000</text><line x1="224.00" y1="550" x2="224.00" y2="556" stroke="#555" stroke-width="1"/><text x="224.00" y="574" text-anchor="middle" font-family="Verdana, sans-serif" font-size="11" fill="#555">800</text><line x1="358.00" y1="550" x2="358.00" y2="556" stroke="#555" stroke-width="1"/><text x="358.00" y="574" text-anchor="middle" font-family="Verdana, sans-serif" font-size="11" fill="#555">600</text><line x1="492.00" y1="550" x2="492.00" y2="556" stroke="#555" stroke-width="1"/><text x="492.00" y="574" text-anchor="middle" font-family="Verdana, sans-serif" font-size="11" fill="#555">400</text><line x1="626.00" y1="550" x2="626.00" y2="556" stroke="#555" stroke-width="1"/><text x="626.00" y="574" text-anchor="middle" font-family="Verdana, sans-serif" font-size="11" fill="#555">200</text><line x1="760.00" y1="550" x2="760.00" y2="556" stroke="#555" stroke-width="1"/><text x="760.00" y="574" text-anchor="middle" font-family="Verdana, sans-serif" font-size="11" fill="#555">0</text><path d="M90.00,306.55 L90.67,306.77 L91.34,306.99 L92.01,307.20 L92.68,307.42 L93.35,307.64 L94.02,307.86 L94.69,308.08 L95.36,308.30 L96.03,308.51 L96.70,308.73 L97.37,308.95 L98.04,309.17 L98.71,309.39 L99.38,309.61 L100.05,309.82 L100.72,310.04 L101.39,310.26 L102.06,310.48 L102.73,310.70 L103.40,310.92 L104.07,311.14 L104.74,311.35 L105.41,311.57 L106.08,311.79 L106.75,312.01 L107.42,312.23 L108.09,312.45 L108.76,312.66 L109.43,312.88 L110.10,313.10 L110.77,313.32 L111.44,313.54 L112.11,313.76 L112.78,313.97 L113.45,314.19 L114.12,314.41 L114.79,314.63 L115.46,314.85 L116.13,315.07 L116.80,315.28 L117.47,315.50 L118.14,315.72 L118.81,315.94 L119.48,316.16 L120.15,316.38 L120.82,316.60 L121.49,316.82 L122.16,317.04 L122.83,317.26 L123.50,317.48 L124.17,317.70 L124.84,317.92 L125.51,318.15 L126.18,318.37 L126.85,318.59 L127.52,318.81 L128.19,319.03 L128.86,319.25 L129.53,319.47 L130.20,319.69 L130.87,319.91 L131.54,320.13 L132.21,320.35 L132.88,320.57 L133.55,320.80 L134.22,321.02 L134.89,321.24 L135.56,321.46 L136.23,321.68 L136.90,321.90 L137.57,322.12 L138.24,322.34 L138.91,322.56 L139.58,322.78 L140.25,323.00 L140.92,323.22 L141.59,323.44 L142.26,323.67 L142.93,323.89 L143.60,324.11 L144.27,324.33 L144.94,324.55 L145.61,324.77 L146.28,324.99 L146.95,325.21 L147.62,325.43 L148.29,325.65 L148.96,325.87 L149.63,326.09 L150.30,326.32 L150.97,326.54 L151.64,326.76 L152.31,326.98 L152.98,327.20 L153.65,327.42 L154.32,327.64 L154.99,327.86 L155.66,328.08 L156.33,328.30 L157.00,328.52 L157.67,328.74 L158.34,328.96 L159.01,329.19 L159.68,329.41 L160.35,329.63 L161.02,329.85 L161.69,330.07 L162.36,330.29 L163.03,330.51 L163.70,330.73 L164.37,330.95 L165.04,331.17 L165.71,331.39 L166.38,331.61 L167.05,331.84 L167.72,332.06 L168.39,332.28 L169.06,332.50 L169.73,332.72 L170.40,332.94 L171.07,333.16 L171.74,333.38 L172.41,333.60 L173.08,333.82 L173.75,334.04 L174.42,334.26 L175.09,334.48 L175.76,334.71 L176.43,334.93 L177.10,335.15 L177.77,335.37 L178.44,335.59 L179.11,335.81 L179.78,336.03 L180.45,336.25 L181.12,336.47 L181.79,336.69 L182.46,336.91 L183.13,337.13 L183.80,337.36 L184.47,337.58 L185.14,337.80 L185.81,338.02 L186.48,338.24 L187.15,338.46 L187.82,338.68 L188.49,338.90 L189.16,339.12 L189.83,339.34 L190.50,339.57 L191.17,339.79 L191.84,340.01 L192.51,340.24 L193.18,340.46 L193.85,340.68 L194.52,340.91 L195.19,341.13 L195.86,341.35 L196.53,341.58 L197.20,341.80 L197.87,342.02 L198.54,342.25 L199.21,342.47 L199.88,342.69 L200.55,342.92 L201.22,343.14 L201.89,343.36 L202.56,343.59 L203.23,343.81 L203.90,344.03 L204.57,344.26 L205.24,344.48 L205.91,344.70 L206.58,344.92 L207.25,345.15 L207.92,345.37 L208.59,345.59 L209.26,345.82 L209.93,346.04 L210.60,346.26 L211.27,346.49 L211.94,346.71 L212.61,346.93 L213.28,347.16 L213.95,347.38 L214.62,347.60 L215.29,347.83 L215.96,348.05 L216.63,348.27 L217.30,348.50 L217.97,348.72 L218.64,348.94 L219.31,349.17 L219.98,349.39 L220.65,349.61 L221.32,349.84 L221.99,350.06 L222.66,350.28 L223.33,350.50 L224.00,350.73 L224.67,350.95 L225.34,351.17 L226.01,351.40 L226.68,351.62 L227.35,351.84 L228.02,352.07 L228.69,352.29 L229.36,352.51 L230.03,352.74 L230.70,352.96 L231.37,353.18 L232.04,353.41 L232.71,353.63 L233.38,353.85 L234.05,354.08 L234.72,354.30 L235.39,354.52 L236.06,354.75 L236.73,354.97 L237.40,355.19 L238.07,355.42 L238.74,355.64 L239.41,355.86 L240.08,356.08 L240.75,356.31 L241.42,356.53 L242.09,356.75 L242.76,356.98 L243.43,357.20 L244.10,357.42 L244.77,357.65 L245.44,357.87 L246.11,358.09 L246.78,358.32 L247.45,358.54 L248.12,358.76 L248.79,358.99 L249.46,359.21 L250.13,359.43 L250.80,359.66 L251.47,359.88 L252.14,360.10 L252.81,360.33 L253.48,360.55 L254.15,360.77 L254.82,361.00 L255.49,361.22 L256.16,361.44 L256.83,361.66 L257.50,361.89 L258.17,362.11 L258.84,362.33 L259.51,362.56 L260.18,362.78 L260.85,363.00 L261.52,363.23 L262.19,363.45 L262.86,363.67 L263.53,363.90 L264.20,364.12 L264.87,364.34 L265.54,364.57 L266.21,364.79 L266.88,365.01 L267.55,365.24 L268.22,365.46 L268.89,365.68 L269.56,365.91 L270.23,366.13 L270.90,366.35 L271.57,366.58 L272.24,366.80 L272.91,367.02 L273.58,367.24 L274.25,367.47 L274.92,367.69 L275.59,367.91 L276.26,368.14 L276.93,368.36 L277.60,368.58 L278.27,368.81 L278.94,369.03 L279.61,369.25 L280.28,369.48 L280.95,369.70 L281.62,369.92 L282.29,370.15 L282.96,370.37 L283.63,370.59 L284.30,370.82 L284.97,371.04 L285.64,371.26 L286.31,371.49 L286.98,371.71 L287.65,371.93 L288.32,372.16 L288.99,372.38 L289.66,372.60 L290.33,372.82 L291.00,373.05 L291.67,373.27 L292.34,373.49 L293.01,373.72 L293.68,373.94 L294.35,374.16 L295.02,374.39 L295.69,374.61 L296.36,374.83 L297.03,375.06 L297.70,375.28 L298.37,375.50 L299.04,375.73 L299.71,375.95 L300.38,376.17 L301.05,376.40 L301.72,376.62 L302.39,376.84 L303.06,377.07 L303.73,377.29 L304.40,377.51 L305.07,377.74 L305.74,377.96 L306.41,378.18 L307.08,378.40 L307.75,378.63 L308.42,378.85 L309.09,379.07 L309.76,379.30 L310.43,379.52 L311.10,379.74 L311.77,379.97 L312.44,380.19 L313.11,380.41 L313.78,380.64 L314.45,380.86 L315.12,381.08 L315.79,381.31 L316.46,381.54 L317.13,381.77 L317.80,382.00 L318.47,382.22 L319.14,382.45 L319.81,382.68 L320.48,382.91 L321.15,383.14 L321.82,383.36 L322.49,383.59 L323.16,383.82 L323.83,384.05 L324.50,384.28 L325.17,384.50 L325.84,384.73 L326.51,384.96 L327.18,385.19 L327.85,385.42 L328.52,385.64 L329.19,385.87 L329.86,386.10 L330.53,386.33 L331.20,386.56 L331.87,386.78 L332.54,387.01 L333.21,387.24 L333.88,387.47 L334.55,387.70 L335.22,387.92 L335.89,388.15 L336.56,388.38 L337.23,388.61 L337.90,388.84 L338.57,389.06 L339.24,389.29 L339.91,389.52 L340.58,389.75 L341.25,389.98 L341.92,390.20 L342.59,390.43 L343.26,390.66 L343.93,390.89 L344.60,391.12 L345.27,391.34 L345.94,391.57 L346.61,391.80 L347.28,392.03 L347.95,392.26 L348.62,392.48 L349.29,392.71 L349.96,392.94 L350.63,393.17 L351.30,393.40 L351.97,393.62 L352.64,393.85 L353.31,394.08 L353.98,394.31 L354.65,394.54 L355.32,394.76 L355.99,394.99 L356.66,395.22 L357.33,395.45 L358.00,395.68 L358.67,395.90 L359.34,396.13 L360.01,396.36 L360.68,396.59 L361.35,396.82 L362.02,397.04 L362.69,397.27 L363.36,397.50 L364.03,397.73 L364.70,397.96 L365.37,398.19 L366.04,398.42 L366.71,398.65 L367.38,398.88 L368.05,399.11 L368.72,399.34 L369.39,399.58 L370.06,399.81 L370.73,400.04 L371.40,400.27 L372.07,400.50 L372.74,400.73 L373.41,400.96 L374.08,401.19 L374.75,401.42 L375.42,401.65 L376.09,401.89 L376.76,402.12 L377.43,402.35 L378.10,402.58 L378.77,402.82 L379.44,403.05 L380.11,403.28 L380.78,403.52 L381.45,403.75 L382.12,403.98 L382.79,404.21 L383.46,404.45 L384.13,404.68 L384.80,404.91 L385.47,405.15 L386.14,405.38 L386.81,405.61 L387.48,405.84 L388.15,406.08 L388.82,406.31 L389.49,406.54 L390.16,406.78 L390.83,407.01 L391.50,407.24 L392.17,407.47 L392.84,407.71 L393.51,407.94 L394.18,408.17 L394.85,408.40 L395.52,408.64 L396.19,408.87 L396.86,409.10 L397.53,409.34 L398.20,409.57 L398.87,409.80 L399.54,410.03 L400.21,410.27 L400.88,410.50 L401.55,410.73 L402.22,410.97 L402.89,411.20 L403.56,411.43 L404.23,411.66 L404.90,411.90 L405.57,412.13 L406.24,412.36 L406.91,412.60 L407.58,412.83 L408.25,413.06 L408.92,413.29 L409.59,413.53 L410.26,413.76 L410.93,413.99 L411.60,414.22 L412.27,414.46 L412.94,414.69 L413.61,414.92 L414.28,415.16 L414.95,415.39 L415.62,415.62 L416.29,415.85 L416.96,416.09 L417.63,416.32 L418.30,416.55 L418.97,416.79 L419.64,417.02 L420.31,417.25 L420.98,417.48 L421.65,417.72 L422.32,417.95 L422.99,418.18 L423.66,418.42 L424.33,418.65 L425.00,418.88 L425.67,419.11 L426.34,419.35 L427.01,419.58 L427.68,419.81 L428.35,420.04 L429.02,420.28 L429.69,420.51 L430.36,420.74 L431.03,420.98 L431.70,421.21 L432.37,421.44 L433.04,421.67 L433.71,421.91 L434.38,422.14 L435.05,422.37 L435.72,422.61 L436.39,422.84 L437.06,423.07 L437.73,423.30 L438.40,423.54 L439.07,423.77 L439.74,424.00 L440.41,424.24 L441.08,424.47 L441.75,424.70 L442.42,424.93 L443.09,425.17 L443.76,425.40 L444.43,425.63 L445.10,425.86 L445.77,426.10 L446.44,426.33 L447.11,426.56 L447.78,426.80 L448.45,427.03 L449.12,427.26 L449.79,427.49 L450.46,427.73 L451.13,427.96 L451.80,428.19 L452.47,428.43 L453.14,428.66 L453.81,428.89 L454.48,429.12 L455.15,429.36 L455.82,429.59 L456.49,429.82 L457.16,430.06 L457.83,430.29 L458.50,430.52 L459.17,430.75 L459.84,430.99 L460.51,431.22 L461.18,431.45 L461.85,431.68 L462.52,431.92 L463.19,432.15 L463.86,432.38 L464.53,432.62 L465.20,432.85 L465.87,433.08 L466.54,433.31 L467.21,433.55 L467.88,433.78 L468.55,434.01 L469.22,434.25 L469.89,434.48 L470.56,434.71 L471.23,434.94 L471.90,435.18 L472.57,435.41 L473.24,435.64 L473.91,435.88 L474.58,436.11 L475.25,436.34 L475.92,436.57 L476.59,436.81 L477.26,437.04 L477.93,437.27 L478.60,437.50 L479.27,437.74 L479.94,437.97 L480.61,438.20 L481.28,438.44 L481.95,438.67 L482.62,438.90 L483.29,439.13 L483.96,439.37 L484.63,439.60 L485.30,439.83 L485.97,440.07 L486.64,440.30 L487.31,440.53 L487.98,440.76 L488.65,441.00 L489.32,441.23 L489.99,441.46 L490.66,441.70 L491.33,441.93 L492.00,442.16 L492.67,442.40 L493.34,442.63 L494.01,442.87 L494.68,443.10 L495.35,443.34 L496.02,443.57 L496.69,443.81 L497.36,444.04 L498.03,444.28 L498.70,444.51 L499.37,444.75 L500.04,444.98 L500.71,445.22 L501.38,445.46 L502.05,445.69 L502.72,445.93 L503.39,446.17 L504.06,446.41 L504.73,446.64 L505.40,446.88 L506.07,447.12 L506.74,447.36 L507.41,447.59 L508.08,447.83 L508.75,448.07 L509.42,448.31 L510.09,448.55 L510.76,448.79 L511.43,449.03 L512.10,449.27 L512.77,449.51 L513.44,449.75 L514.11,449.99 L514.78,450.23 L515.45,450.47 L516.12,450.71 L516.79,450.95 L517.46,451.19 L518.13,451.43 L518.80,451.67 L519.47,451.91 L520.14,452.15 L520.81,452.39 L521.48,452.63 L522.15,452.87 L522.82,453.11 L523.49,453.35 L524.16,453.59 L524.83,453.83 L525.50,454.07 L526.17,454.31 L526.84,454.55 L527.51,454.79 L528.18,455.03 L528.85,455.27 L529.52,455.51 L530.19,455.75 L530.86,455.99 L531.53,456.23 L532.20,456.47 L532.87,456.71 L533.54,456.95 L534.21,457.19 L534.88,457.43 L535.55,457.67 L536.22,457.91 L536.89,458.15 L537.56,458.39 L538.23,458.63 L538.90,458.87 L539.57,459.11 L540.24,459.35 L540.91,459.59 L541.58,459.83 L542.25,460.07 L542.92,460.31 L543.59,460.55 L544.26,460.79 L544.93,461.03 L545.60,461.27 L546.27,461.51 L546.94,461.75 L547.61,461.99 L548.28,462.23 L548.95,462.47 L549.62,462.71 L550.29,462.95 L550.96,463.19 L551.63,463.43 L552.30,463.67 L552.97,463.91 L553.64,464.15 L554.31,464.39 L554.98,464.63 L555.65,464.87 L556.32,465.11 L556.99,465.35 L557.66,465.59 L558.33,465.83 L559.00,466.07 L559.67,466.31 L560.34,466.55 L561.01,466.79 L561.68,467.03 L562.35,467.27 L563.02,467.51 L563.69,467.75 L564.36,467.99 L565.03,468.23 L565.70,468.47 L566.37,468.71 L567.04,468.95 L567.71,469.19 L568.38,469.43 L569.05,469.67 L569.72,469.91 L570.39,470.15 L571.06,470.39 L571.73,470.63 L572.40,470.87 L573.07,471.11 L573.74,471.35 L574.41,471.59 L575.08,471.84 L575.75,472.08 L576.42,472.32 L577.09,472.57 L577.76,472.81 L578.43,473.06 L579.10,473.31 L579.77,473.55 L580.44,473.80 L581.11,474.05 L581.78,474.29 L582.45,474.54 L583.12,474.79 L583.79,475.04 L584.46,475.28 L585.13,475.53 L585.80,475.78 L586.47,476.02 L587.14,476.27 L587.81,476.52 L588.48,476.77 L589.15,477.01 L589.82,477.26 L590.49,477.51 L591.16,477.76 L591.83,478.00 L592.50,478.25 L593.17,478.50 L593.84,478.74 L594.51,478.99 L595.18,479.24 L595.85,479.49 L596.52,479.73 L597.19,479.98 L597.86,480.23 L598.53,480.47 L599.20,480.72 L599.87,480.97 L600.54,481.22 L601.21,481.47 L601.88,481.72 L602.55,481.97 L603.22,482.22 L603.89,482.48 L604.56,482.73 L605.23,482.99 L605.90,483.24 L606.57,483.50 L607.24,483.75 L607.91,484.00 L608.58,484.26 L609.25,484.51 L609.92,484.77 L610.59,485.02 L611.26,485.28 L611.93,485.53 L612.60,485.79 L613.27,486.04 L613.94,486.30 L614.61,486.56 L615.28,486.82 L615.95,487.07 L616.62,487.33 L617.29,487.59 L617.96,487.84 L618.63,488.10 L619.30,488.36 L619.97,488.61 L620.64,488.87 L621.31,489.13 L621.98,489.38 L622.65,489.64 L623.32,489.90 L623.99,490.15 L624.66,490.41 L625.33,490.67 L626.00,490.92 L626.67,491.18 L627.34,491.44 L628.01,491.69 L628.68,491.95 L629.35,492.21 L630.02,492.46 L630.69,492.72 L631.36,492.98 L632.03,493.24 L632.70,493.49 L633.37,493.75 L634.04,494.01 L634.71,494.26 L635.38,494.52 L636.05,494.78 L636.72,495.03 L637.39,495.29 L638.06,495.55 L638.73,495.80 L639.40,496.06 L640.07,496.32 L640.74,496.57 L641.41,496.83 L642.08,497.09 L642.75,497.34 L643.42,497.60 L644.09,497.86 L644.76,498.12 L645.43,498.38 L646.10,498.64 L646.77,498.89 L647.44,499.15 L648.11,499.41 L648.78,499.67 L649.45,499.93 L650.12,500.19 L650.79,500.45 L651.46,500.71 L652.13,500.97 L652.80,501.23 L653.47,501.50 L654.14,501.76 L654.81,502.02 L655.48,502.28 L656.15,502.54 L656.82,502.80 L657.49,503.07 L658.16,503.33 L658.83,503.59 L659.50,503.85 L660.17,504.11 L660.84,504.37 L661.51,504.64 L662.18,504.90 L662.85,505.16 L663.52,505.42 L664.19,505.68 L664.86,505.95 L665.53,506.21 L666.20,506.48 L666.87,506.74 L667.54,507.01 L668.21,507.28 L668.88,507.54 L669.55,507.81 L670.22,508.08 L670.89,508.35 L671.56,508.61 L672.23,508.88 L672.90,509.15 L673.57,509.42 L674.24,509.69 L674.91,509.97 L675.58,510.24 L676.25,510.51 L676.92,510.78 L677.59,511.05 L678.26,511.32 L678.93,511.59 L679.60,511.86 L680.27,512.14 L680.94,512.41 L681.61,512.68 L682.28,512.95 L682.95,513.22 L683.62,513.49 L684.29,513.76 L684.96,514.04 L685.63,514.31 L686.30,514.58 L686.97,514.86 L687.64,515.13 L688.31,515.41 L688.98,515.68 L689.65,515.96 L690.32,516.24 L690.99,516.52 L691.66,516.80 L692.33,517.08 L693.00,517.36 L693.67,517.64 L694.34,517.92 L695.01,518.20 L695.68,518.48 L696.35,518.76 L697.02,519.05 L697.69,519.33 L698.36,519.61 L699.03,519.90 L699.70,520.18 L700.37,520.47 L701.04,520.76 L701.71,521.04 L702.38,521.33 L703.05,521.61 L703.72,521.90 L704.39,522.18 L705.06,522.47 L705.73,522.76 L706.40,523.04 L707.07,523.33 L707.74,523.62 L708.41,523.90 L709.08,524.19 L709.75,524.48 L710.42,524.77 L711.09,525.06 L711.76,525.35 L712.43,525.64 L713.10,525.94 L713.77,526.23 L714.44,526.52 L715.11,526.81 L715.78,527.10 L716.45,527.39 L717.12,527.69 L717.79,527.98 L718.46,528.28 L719.13,528.58 L719.80,528.88 L720.47,529.18 L721.14,529.47 L721.81,529.77 L722.48,530.07 L723.15,530.37 L723.82,530.67 L724.49,530.98 L725.16,531.28 L725.83,531.58 L726.50,531.88 L727.17,532.19 L727.84,532.50 L728.51,532.81 L729.18,533.12 L729.85,533.43 L730.52,533.75 L731.19,534.06 L731.86,534.38 L732.53,534.70 L733.20,535.02 L733.87,535.34 L734.54,535.66 L735.21,535.98 L735.88,536.31 L736.55,536.63 L737.22,536.95 L737.89,537.27 L738.56,537.60 L739.23,537.92 L739.90,538.25 L740.57,538.58 L741.24,538.91 L741.91,539.24 L742.58,539.57 L743.25,539.91 L743.92,540.25 L744.59,540.59 L745.26,540.93 L745.93,541.28 L746.60,541.62 L747.27,541.97 L747.94,542.33 L748.61,542.68 L749.28,543.04 L749.95,543.40 L750.62,543.76 L751.29,544.13 L751.96,544.50 L752.63,544.87 L753.30,545.25 L753.97,545.64 L754.64,546.04 L755.31,546.45 L755.98,546.87 L756.65,547.30 L757.32,547.74 L757.99,548.22 L758.66,548.72 L759.33,549.27 L760.00,550.00" fill="none" stroke="#c26d2d" stroke-width="3"/><rect x="784" y="78" width="292" height="238" rx="10" fill="#fff4e8" stroke="#e3c29e"/><text x="800" y="100" font-family="Verdana, sans-serif" font-size="13" fill="#7a4618">Explicit cap values</text><circle cx="760.00" cy="550.00" r="4.5" fill="#7a4618"/><text x="750.00" y="540.00" text-anchor="end" font-family="Verdana, sans-serif" font-size="11" fill="#7a4618">N=0</text><text x="800" y="124" font-family="Verdana, sans-serif" font-size="12" fill="#333">N=0: 0</text><circle cx="758.66" cy="548.72" r="4.5" fill="#7a4618"/><text x="800" y="148" font-family="Verdana, sans-serif" font-size="12" fill="#333">N=2: 534</text><circle cx="756.65" cy="547.30" r="4.5" fill="#7a4618"/><text x="800" y="172" font-family="Verdana, sans-serif" font-size="12" fill="#333">N=5: 1,126</text><circle cx="753.30" cy="545.25" r="4.5" fill="#7a4618"/><text x="800" y="196" font-family="Verdana, sans-serif" font-size="12" fill="#333">N=10: 1,978</text><circle cx="746.60" cy="541.62" r="4.5" fill="#7a4618"/><text x="800" y="220" font-family="Verdana, sans-serif" font-size="12" fill="#333">N=20: 3,490</text><circle cx="726.50" cy="531.88" r="4.5" fill="#7a4618"/><text x="800" y="244" font-family="Verdana, sans-serif" font-size="12" fill="#333">N=50: 7,548</text><circle cx="693.00" cy="517.36" r="4.5" fill="#7a4618"/><text x="693.00" y="507.36" text-anchor="middle" font-family="Verdana, sans-serif" font-size="11" fill="#7a4618">N=100</text><text x="800" y="268" font-family="Verdana, sans-serif" font-size="12" fill="#333">N=100: 13,600</text><circle cx="425.00" cy="418.88" r="4.5" fill="#7a4618"/><text x="425.00" y="408.88" text-anchor="middle" font-family="Verdana, sans-serif" font-size="11" fill="#7a4618">N=500</text><text x="800" y="292" font-family="Verdana, sans-serif" font-size="12" fill="#333">N=500: 54,633</text><circle cx="90.00" cy="306.55" r="4.5" fill="#7a4618"/><text x="100.00" y="296.55" text-anchor="start" font-family="Verdana, sans-serif" font-size="11" fill="#7a4618">N=1000</text><text x="800" y="316" font-family="Verdana, sans-serif" font-size="12" fill="#333">N=1000: 101,438</text><text x="425.00" y="616" text-anchor="middle" font-family="Verdana, sans-serif" font-size="13" fill="#333">N repairs kept per property revision</text><text x="22" y="310.00" font-family="Verdana, sans-serif" font-size="13" fill="#333" transform="rotate(-90 22 310.00)">Surviving T-BOX repairs</text></svg>